#Comment line ignore any data following # character 
#Hierarchical Translation and Rotation (.htr) file 
[Header]	
#Header keywords are followed by a single value 
FileType HTR		#Single word string
DataType HTRS		#Translation followed by rotation and scale data
FileVersion 1		#integer
NumSegments 84		#integer
NumFrames 2		#integer
DataFrameRate 30		#integer, data frame rate in this file
EulerRotationOrder ZYX
CalibrationUnits mm
RotationUnits Degrees
GlobalAxisofGravity Y
BoneLengthAxis Y
ScaleFactor 1.00
[SegmentNames&Hierarchy]
#CHILD	PARENT
MASTER GLOBAL
root MASTER
chest root
L_mid_tent01 root
R_mid_tent01 root
spine01 root
Bip01_Neck chest
L_humerus chest
R_humerus chest
weapon_bone chest
Bip01_Head Bip01_Neck
eye_left_bone Bip01_Head
eye_right_bone Bip01_Head
L_forearm L_humerus
L_front_hand L_forearm
L_weapon_bone L_forearm
L_front_hand01_01 L_front_hand
L_front_hand02_01 L_front_hand
L_front_hand03_01 L_front_hand
L_front_hand01_02 L_front_hand01_01
L_front_hand02_02 L_front_hand02_01
L_front_hand03_02 L_front_hand03_01
R_forearm R_humerus
R_front_hand R_forearm
R_weapon_bone R_forearm
R_front_hand01_01 R_front_hand
R_front_hand02_01 R_front_hand
R_front_hand03_01 R_front_hand
R_front_hand01_02 R_front_hand01_01
R_front_hand02_02 R_front_hand02_01
R_front_hand03_02 R_front_hand03_01
null_rope01_connect L_mid_tent01
Rope1_Seg01 null_rope01_connect
Rope1_Seg02 Rope1_Seg01
Rope1_Seg03 Rope1_Seg02
Rope1_Seg04 Rope1_Seg03
Rope1_Seg05 Rope1_Seg04
Rope1_Seg06 Rope1_Seg05
Rope1_Seg07 Rope1_Seg06
Rope1_Seg09 Rope1_Seg07
L_mid_hand01 Rope1_Seg09
L_mid_hand02 Rope1_Seg09
L_mid_hand03 Rope1_Seg09
null_rope02_connect R_mid_tent01
Rope2_Seg01 null_rope02_connect
Rope2_Seg02 Rope2_Seg01
Rope2_Seg03 Rope2_Seg02
Rope2_Seg04 Rope2_Seg03
Rope2_Seg05 Rope2_Seg04
Rope2_Seg06 Rope2_Seg05
Rope2_Seg07 Rope2_Seg06
Rope2_Seg09 Rope2_Seg07
R_mid_hand01 Rope2_Seg09
R_mid_hand02 Rope2_Seg09
R_mid_hand03 Rope2_Seg09
spine02 spine01
spine03 spine02
pelvis spine03
null_rope03_connect pelvis
null_rope04_connect pelvis
Rope3_Seg01 null_rope03_connect
Rope3_Seg02 Rope3_Seg01
Rope3_Seg03 Rope3_Seg02
Rope3_Seg04 Rope3_Seg03
Rope3_Seg05 Rope3_Seg04
Rope3_Seg06 Rope3_Seg05
Rope3_Seg07 Rope3_Seg06
Rope3_Seg08 Rope3_Seg07
Rope3_Seg09 Rope3_Seg08
R_rear_hand01 Rope3_Seg09
R_rear_hand02 Rope3_Seg09
R_rear_hand03 Rope3_Seg09
Rope4_Seg01 null_rope04_connect
Rope4_Seg02 Rope4_Seg01
Rope4_Seg03 Rope4_Seg02
Rope4_Seg04 Rope4_Seg03
Rope4_Seg05 Rope4_Seg04
Rope4_Seg06 Rope4_Seg05
Rope4_Seg07 Rope4_Seg06
Rope4_Seg08 Rope4_Seg07
Rope4_Seg09 Rope4_Seg08
L_rear_hand01 Rope4_Seg09
L_rear_hand02 Rope4_Seg09
L_rear_hand03 Rope4_Seg09
[BasePosition]
#SegmentName Tx, Ty, Tz, Rx, Ry, Rz, BoneLength
MASTER 0.000000 0.000000 0.000000 -90.000000 0.000000 0.000000 10.000000 
root 0.000000 0.000000 0.000000 0.000000 0.000000 0.000000 10.000000 
chest 0.000000 0.000000 0.000000 0.000000 0.000000 0.000000 10.000000 
L_mid_tent01 0.000000 0.000000 0.000000 0.000000 0.000000 0.000000 10.000000 
R_mid_tent01 0.000000 0.000000 0.000000 0.000000 0.000000 0.000000 10.000000 
spine01 0.000000 0.000000 0.000000 0.000000 0.000000 0.000000 10.000000 
Bip01_Neck 0.000000 0.000000 0.000000 0.000000 0.000000 0.000000 10.000000 
L_humerus 0.000000 0.000000 0.000000 0.000000 0.000000 0.000000 10.000000 
R_humerus 0.000000 0.000000 0.000000 0.000000 0.000000 0.000000 10.000000 
weapon_bone 0.000000 0.000000 0.000000 0.000000 0.000000 0.000000 10.000000 
Bip01_Head 0.000000 0.000000 0.000000 0.000000 0.000000 0.000000 10.000000 
eye_left_bone 0.000000 0.000000 0.000000 0.000000 0.000000 0.000000 10.000000 
eye_right_bone 0.000000 0.000000 0.000000 0.000000 0.000000 0.000000 10.000000 
L_forearm 0.000000 0.000000 0.000000 0.000000 0.000000 0.000000 10.000000 
L_front_hand 0.000000 0.000000 0.000000 0.000000 0.000000 0.000000 10.000000 
L_weapon_bone 0.000000 0.000000 0.000000 0.000000 0.000000 0.000000 10.000000 
L_front_hand01_01 0.000000 0.000000 0.000000 0.000000 0.000000 0.000000 10.000000 
L_front_hand02_01 0.000000 0.000000 0.000000 0.000000 0.000000 0.000000 10.000000 
L_front_hand03_01 0.000000 0.000000 0.000000 0.000000 0.000000 0.000000 10.000000 
L_front_hand01_02 0.000000 0.000000 0.000000 0.000000 0.000000 0.000000 10.000000 
L_front_hand02_02 0.000000 0.000000 0.000000 0.000000 0.000000 0.000000 10.000000 
L_front_hand03_02 0.000000 0.000000 0.000000 0.000000 0.000000 0.000000 10.000000 
R_forearm 0.000000 0.000000 0.000000 0.000000 0.000000 0.000000 10.000000 
R_front_hand 0.000000 0.000000 0.000000 0.000000 0.000000 0.000000 10.000000 
R_weapon_bone 0.000000 0.000000 0.000000 0.000000 0.000000 0.000000 10.000000 
R_front_hand01_01 0.000000 0.000000 0.000000 0.000000 0.000000 0.000000 10.000000 
R_front_hand02_01 0.000000 0.000000 0.000000 0.000000 0.000000 0.000000 10.000000 
R_front_hand03_01 0.000000 0.000000 0.000000 0.000000 0.000000 0.000000 10.000000 
R_front_hand01_02 0.000000 0.000000 0.000000 0.000000 0.000000 0.000000 10.000000 
R_front_hand02_02 0.000000 0.000000 0.000000 0.000000 0.000000 0.000000 10.000000 
R_front_hand03_02 0.000000 0.000000 0.000000 0.000000 0.000000 0.000000 10.000000 
null_rope01_connect 0.000000 0.000000 0.000000 0.000000 0.000000 0.000000 10.000000 
Rope1_Seg01 0.000000 0.000000 0.000000 0.000000 0.000000 0.000000 10.000000 
Rope1_Seg02 0.000000 0.000000 0.000000 0.000000 0.000000 0.000000 10.000000 
Rope1_Seg03 0.000000 0.000000 0.000000 0.000000 0.000000 0.000000 10.000000 
Rope1_Seg04 0.000000 0.000000 0.000000 0.000000 0.000000 0.000000 10.000000 
Rope1_Seg05 0.000000 0.000000 0.000000 0.000000 0.000000 0.000000 10.000000 
Rope1_Seg06 0.000000 0.000000 0.000000 0.000000 0.000000 0.000000 10.000000 
Rope1_Seg07 0.000000 0.000000 0.000000 0.000000 0.000000 0.000000 10.000000 
Rope1_Seg09 0.000000 0.000000 0.000000 0.000000 0.000000 0.000000 10.000000 
L_mid_hand01 0.000000 0.000000 0.000000 0.000000 0.000000 0.000000 10.000000 
L_mid_hand02 0.000000 0.000000 0.000000 0.000000 0.000000 0.000000 10.000000 
L_mid_hand03 0.000000 0.000000 0.000000 0.000000 0.000000 0.000000 10.000000 
null_rope02_connect 0.000000 0.000000 0.000000 0.000000 0.000000 0.000000 10.000000 
Rope2_Seg01 0.000000 0.000000 0.000000 0.000000 0.000000 0.000000 10.000000 
Rope2_Seg02 0.000000 0.000000 0.000000 0.000000 0.000000 0.000000 10.000000 
Rope2_Seg03 0.000000 0.000000 0.000000 0.000000 0.000000 0.000000 10.000000 
Rope2_Seg04 0.000000 0.000000 0.000000 0.000000 0.000000 0.000000 10.000000 
Rope2_Seg05 0.000000 0.000000 0.000000 0.000000 0.000000 0.000000 10.000000 
Rope2_Seg06 0.000000 0.000000 0.000000 0.000000 0.000000 0.000000 10.000000 
Rope2_Seg07 0.000000 0.000000 0.000000 0.000000 0.000000 0.000000 10.000000 
Rope2_Seg09 0.000000 0.000000 0.000000 0.000000 0.000000 0.000000 10.000000 
R_mid_hand01 0.000000 0.000000 0.000000 0.000000 0.000000 0.000000 10.000000 
R_mid_hand02 0.000000 0.000000 0.000000 0.000000 0.000000 0.000000 10.000000 
R_mid_hand03 0.000000 0.000000 0.000000 0.000000 0.000000 0.000000 10.000000 
spine02 0.000000 0.000000 0.000000 0.000000 0.000000 0.000000 10.000000 
spine03 0.000000 0.000000 0.000000 0.000000 0.000000 0.000000 10.000000 
pelvis 0.000000 0.000000 0.000000 0.000000 0.000000 0.000000 10.000000 
null_rope03_connect 0.000000 0.000000 0.000000 0.000000 0.000000 0.000000 10.000000 
null_rope04_connect 0.000000 0.000000 0.000000 0.000000 0.000000 0.000000 10.000000 
Rope3_Seg01 0.000000 0.000000 0.000000 0.000000 0.000000 0.000000 10.000000 
Rope3_Seg02 0.000000 0.000000 0.000000 0.000000 0.000000 0.000000 10.000000 
Rope3_Seg03 0.000000 0.000000 0.000000 0.000000 0.000000 0.000000 10.000000 
Rope3_Seg04 0.000000 0.000000 0.000000 0.000000 0.000000 0.000000 10.000000 
Rope3_Seg05 0.000000 0.000000 0.000000 0.000000 0.000000 0.000000 10.000000 
Rope3_Seg06 0.000000 0.000000 0.000000 0.000000 0.000000 0.000000 10.000000 
Rope3_Seg07 0.000000 0.000000 0.000000 0.000000 0.000000 0.000000 10.000000 
Rope3_Seg08 0.000000 0.000000 0.000000 0.000000 0.000000 0.000000 10.000000 
Rope3_Seg09 0.000000 0.000000 0.000000 0.000000 0.000000 0.000000 10.000000 
R_rear_hand01 0.000000 0.000000 0.000000 0.000000 0.000000 0.000000 10.000000 
R_rear_hand02 0.000000 0.000000 0.000000 0.000000 0.000000 0.000000 10.000000 
R_rear_hand03 0.000000 0.000000 0.000000 0.000000 0.000000 0.000000 10.000000 
Rope4_Seg01 0.000000 0.000000 0.000000 0.000000 0.000000 0.000000 10.000000 
Rope4_Seg02 0.000000 0.000000 0.000000 0.000000 0.000000 0.000000 10.000000 
Rope4_Seg03 0.000000 0.000000 0.000000 0.000000 0.000000 0.000000 10.000000 
Rope4_Seg04 0.000000 0.000000 0.000000 0.000000 0.000000 0.000000 10.000000 
Rope4_Seg05 0.000000 0.000000 0.000000 0.000000 0.000000 0.000000 10.000000 
Rope4_Seg06 0.000000 0.000000 0.000000 0.000000 0.000000 0.000000 10.000000 
Rope4_Seg07 0.000000 0.000000 0.000000 0.000000 0.000000 0.000000 10.000000 
Rope4_Seg08 0.000000 0.000000 0.000000 0.000000 0.000000 0.000000 10.000000 
Rope4_Seg09 0.000000 0.000000 0.000000 0.000000 0.000000 0.000000 10.000000 
L_rear_hand01 0.000000 0.000000 0.000000 0.000000 0.000000 0.000000 10.000000 
L_rear_hand02 0.000000 0.000000 0.000000 0.000000 0.000000 0.000000 10.000000 
L_rear_hand03 0.000000 0.000000 0.000000 0.000000 0.000000 0.000000 10.000000 
#Beginning of Data. Separated by tabs
#Fr	Tx	Ty	Tz	Rx	Ry	Rz	SF
[MASTER]
46 -16.547016 5882.569824 120.883110 0.001660 0.001660 0.001660 5883.834961
47 -8.274034 6172.650391 60.441792 0.001660 0.001660 0.001660 6172.952148
[root]
46 -8.110710 -10.485383 1369.131348 -91.719391 -12.502999 -89.500290 1369.195435
47 -14.194380 3.902478 1426.542725 -91.725197 -11.823707 -89.477791 1426.618652
[chest]
46 -84.512650 -34.090519 0.000000 -1.524877 -2.727972 161.083420 91.129311
47 -84.512650 -34.090519 0.000000 -1.948524 -1.389777 164.785568 91.129311
[L_mid_tent01]
46 27.299175 22.179270 -249.918732 -19.933804 15.371589 18.075014 252.381729
47 27.299177 22.179272 -249.918732 -20.337530 13.704957 15.511886 252.381729
[R_mid_tent01]
46 23.228794 24.509907 226.238495 -167.070602 -20.015434 27.631289 228.744751
47 23.228794 24.509907 226.238495 -166.110794 -18.998793 25.828211 228.744751
[spine01]
46 -0.361383 -0.195265 0.000000 -0.000001 -0.000007 22.052340 0.410763
47 -0.361383 -0.195265 0.000000 -0.000001 -0.000007 22.052340 0.410763
[Bip01_Neck]
46 165.484543 71.581718 0.000119 176.643677 -1.657967 43.431911 180.302734
47 165.484543 71.581718 0.000119 176.643677 -1.657967 43.431911 180.302734
[L_humerus]
46 -13.983130 -135.272980 -120.471481 -3.071795 72.750435 87.123459 181.680161
47 -13.983130 -135.272980 -120.471481 -4.442844 70.943077 85.690903 181.680161
[R_humerus]
46 -13.983309 -135.273102 125.287651 30.062883 -74.046188 65.502190 184.909012
47 -13.983309 -135.273102 125.287651 29.058712 -72.082870 66.554939 184.909012
[weapon_bone]
46 235.964890 -300.705902 0.000000 0.000000 -89.951546 -128.212341 382.234833
47 235.964890 -300.705902 0.000000 0.000000 -89.951546 -128.212341 382.234833
[Bip01_Head]
46 203.286667 162.408752 31.616480 4.962490 2.797846 -43.898743 262.110046
47 203.286713 162.408752 31.616476 4.962490 2.797846 -43.898743 262.110077
[eye_left_bone]
46 -24.626970 125.451866 -64.772606 0.000000 -90.000000 -99.840431 143.318359
47 -24.626970 125.451866 -64.772606 0.000000 -90.000000 -99.840431 143.318359
[eye_right_bone]
46 -24.626970 125.451866 64.327362 0.000000 -89.965736 80.156380 143.117676
47 -24.626970 125.451866 64.327362 0.000000 -89.965736 80.156380 143.117676
[L_forearm]
46 322.776093 0.000000 -0.000119 0.000376 0.002317 -71.546188 322.776093
47 322.776093 0.000000 -0.000119 0.000028 -0.002347 -91.355728 322.776093
[L_front_hand]
46 241.149185 -0.042021 -3.300071 0.836591 -1.835726 -27.423462 241.171753
47 241.149185 -0.042021 -3.300071 0.836591 -1.835726 -27.423458 241.171753
[L_weapon_bone]
46 156.183838 0.000000 0.000000 0.000014 0.000007 0.000001 156.183838
47 156.183838 0.000000 0.000000 0.000014 0.000007 0.000001 156.183838
[L_front_hand01_01]
46 86.095154 20.947098 -0.655860 -0.366594 -0.477154 75.385574 88.609184
47 86.095154 20.947098 -0.655860 -0.366594 -0.477154 75.385574 88.609184
[L_front_hand02_01]
46 86.935165 -11.437475 24.513514 154.399796 -59.883835 -61.369587 91.046425
47 86.935165 -11.437475 24.513514 154.399796 -59.883835 -61.369587 91.046425
[L_front_hand03_01]
46 86.637497 -14.123976 -20.424902 -153.913849 58.118122 -62.702866 90.126129
47 86.637497 -14.123976 -20.424902 -153.913849 58.118107 -62.702866 90.126129
[L_front_hand01_02]
46 71.020905 -0.000179 0.000030 0.000334 -0.002323 -106.379684 71.020905
47 71.020905 -0.000179 0.000030 0.000334 -0.002323 -106.379684 71.020905
[L_front_hand02_02]
46 71.020927 -0.000119 0.000060 0.000334 -0.002323 -106.379684 71.020927
47 71.020927 -0.000119 0.000060 0.000334 -0.002323 -106.379684 71.020927
[L_front_hand03_02]
46 71.020905 -0.000060 0.000060 0.000334 -0.002323 -106.379684 71.020905
47 71.020905 -0.000060 0.000060 0.000334 -0.002323 -106.379684 71.020905
[R_forearm]
46 322.776428 -0.000060 0.000030 0.194248 -0.081842 -67.911652 322.776428
47 322.776428 -0.000060 0.000030 0.213240 -0.010164 -88.914070 322.776428
[R_front_hand]
46 238.847015 -0.006795 2.210259 42.936222 -10.646152 -26.312963 238.857239
47 238.847015 -0.006795 2.210259 42.936222 -10.646152 -26.312963 238.857239
[R_weapon_bone]
46 155.664093 0.002503 -0.000030 0.003487 0.001180 -90.988930 155.664078
47 155.664093 0.002503 -0.000030 0.003487 0.001180 -90.988930 155.664078
[R_front_hand01_01]
46 87.624611 14.231146 22.918642 -154.633484 -59.950607 61.746033 91.683487
47 87.624611 14.231146 22.918642 -154.633499 -59.950619 61.746044 91.683487
[R_front_hand02_01]
46 89.356956 14.367283 -19.491137 154.602661 58.302849 63.744389 92.579636
47 89.356956 14.367283 -19.491137 154.602661 58.302849 63.744389 92.579636
[R_front_hand03_01]
46 87.286232 -22.307278 -0.143439 0.162155 -0.423168 -75.767921 90.091743
47 87.286232 -22.307278 -0.143439 0.162155 -0.423168 -75.767921 90.091743
[R_front_hand01_02]
46 71.020905 0.000060 0.000119 0.002323 -0.000334 106.381714 71.020905
47 71.020905 0.000060 0.000119 0.002323 -0.000334 106.381714 71.020905
[R_front_hand02_02]
46 71.020844 -0.000030 -0.000119 0.002323 -0.000334 106.381714 71.020836
47 71.020844 -0.000030 -0.000119 0.002323 -0.000334 106.381714 71.020836
[R_front_hand03_02]
46 71.020905 0.000000 0.000030 0.002323 -0.000334 106.381714 71.020905
47 71.020905 0.000000 0.000030 0.002323 -0.000334 106.381714 71.020905
[null_rope01_connect]
46 328.732483 0.000000 -0.000238 -151.362793 -63.624226 -126.708710 328.732483
47 328.732483 0.000000 -0.000238 -153.100647 -64.227470 -122.846680 328.732483
[Rope1_Seg01]
46 -0.000037 0.000002 0.000146 65.031509 3.123712 -127.000618 0.000151
47 -0.000037 0.000001 0.000149 65.563248 -0.248229 -128.302322 0.000154
[Rope1_Seg02]
46 139.999863 -0.000179 0.000000 -7.896286 3.649297 0.335006 139.999863
47 139.999863 -0.000179 0.000000 -5.817817 3.731444 -0.386196 139.999863
[Rope1_Seg03]
46 139.999924 0.000060 -0.000060 -6.136508 2.932414 -0.214995 139.999924
47 139.999924 0.000060 -0.000060 -5.293110 3.474669 -0.926750 139.999924
[Rope1_Seg04]
46 139.999924 -0.000060 -0.000119 1.618385 1.625387 -2.518157 139.999924
47 139.999924 -0.000060 -0.000119 5.781362 1.651872 -4.412933 139.999924
[Rope1_Seg05]
46 139.999832 0.000119 -0.000060 -44.385674 12.413975 13.210840 139.999832
47 139.999832 0.000119 -0.000060 -50.942417 15.690358 11.880305 139.999832
[Rope1_Seg06]
46 139.999954 0.000119 -0.000060 -12.542536 -1.283882 14.375207 139.999954
47 139.999954 0.000119 -0.000060 -13.521914 -1.037636 15.088832 139.999954
[Rope1_Seg07]
46 139.999985 0.000060 0.000000 -3.070923 -1.540631 5.661094 139.999985
47 139.999985 0.000060 0.000000 -3.115387 -1.373407 5.533250 139.999985
[Rope1_Seg09]
46 121.602913 0.000119 -0.000089 -89.793175 -1.359789 0.847147 121.602913
47 121.602913 0.000119 -0.000089 -89.793175 -1.359789 0.847147 121.602913
[L_mid_hand01]
46 103.859421 1.038730 8.195221 130.544373 -67.584534 -38.866943 104.187431
47 103.859421 1.038730 8.195221 130.544373 -67.584534 -38.866943 104.187431
[L_mid_hand02]
46 105.572853 -4.139662 -10.864139 -168.923172 43.409309 -73.498886 106.211075
47 105.572853 -4.139662 -10.864139 -168.923172 43.409309 -73.498886 106.211075
[L_mid_hand03]
46 104.641464 17.579376 -3.913581 -6.012627 17.808174 74.893669 106.179977
47 104.641464 17.579376 -3.913581 -6.012627 17.808174 74.893669 106.179977
[null_rope02_connect]
46 328.732849 0.000179 -0.000119 -136.087051 67.464622 -28.419798 328.732849
47 328.732849 0.000179 -0.000119 -138.316360 67.801369 -31.734325 328.732849
[Rope2_Seg01]
46 0.000075 0.000006 0.000000 68.288376 8.761232 -53.016129 0.000075
47 0.000075 0.000003 0.000000 59.672291 5.552136 -52.576584 0.000076
[Rope2_Seg02]
46 139.999741 -0.000060 -0.000119 23.482098 -13.386669 -5.625042 139.999756
47 139.999741 -0.000060 -0.000119 26.202335 -11.587470 -7.833467 139.999756
[Rope2_Seg03]
46 140.000107 0.000030 0.000000 7.891721 -8.753166 -1.577749 140.000107
47 140.000107 0.000030 0.000000 9.126829 -7.412823 -2.743695 140.000107
[Rope2_Seg04]
46 139.999802 0.000000 -0.000060 -0.255312 -9.060001 4.056187 139.999802
47 139.999802 0.000000 -0.000060 1.505410 -10.492852 3.047636 139.999802
[Rope2_Seg05]
46 139.999985 -0.000060 0.000119 -1.749424 -6.280967 4.715761 139.999985
47 139.999985 -0.000060 0.000119 -0.696371 -7.576167 3.949384 139.999985
[Rope2_Seg06]
46 139.999893 -0.000030 -0.000119 -0.385868 -3.326196 1.927759 139.999893
47 139.999893 -0.000030 -0.000119 -0.026339 -3.609252 1.516667 139.999893
[Rope2_Seg07]
46 139.999893 0.000060 -0.000060 -0.213725 -2.147724 1.197811 139.999893
47 139.999893 0.000060 -0.000060 -0.022101 -2.288242 0.941985 139.999893
[Rope2_Seg09]
46 121.338966 0.000089 -0.000060 33.793236 -1.359788 -0.847141 121.338966
47 121.338966 0.000089 -0.000060 33.793236 -1.359788 -0.847141 121.338966
[R_mid_hand01]
46 104.680779 11.144459 -10.335981 -16.212063 45.237247 70.462852 105.778534
47 104.680779 11.144459 -10.335981 -16.212063 45.237247 70.462852 105.778534
[R_mid_hand02]
46 104.070427 2.443552 8.231699 49.067368 -67.749771 39.286453 104.424065
47 104.070427 2.443552 8.231699 49.067368 -67.749771 39.286453 104.424065
[R_mid_hand03]
46 106.028137 -11.221827 -5.996406 -177.101105 15.551026 -76.585571 106.788818
47 106.028137 -11.221827 -5.996406 -177.101105 15.551026 -76.585571 106.788818
[spine02]
46 129.756927 0.001550 0.000119 0.361294 -4.044688 -12.949964 129.756927
47 129.756927 0.001550 0.000119 0.360237 -4.044782 -12.920044 129.756927
[spine03]
46 78.613899 0.081781 -4.898988 1.897164 3.830957 16.493067 78.766441
47 78.613892 0.081784 -4.898987 1.896829 3.831122 16.483055 78.766426
[pelvis]
46 169.435242 0.051022 0.000000 -0.060528 -0.180204 14.127795 169.435257
47 169.435242 0.051022 0.000000 -0.060497 -0.180215 14.107864 169.435257
[null_rope03_connect]
46 -1.257226 -2.466202 137.391083 158.420044 -89.408173 -95.625793 137.418976
47 -1.257226 -2.466202 137.391083 156.952438 -89.390587 -94.821083 137.418976
[null_rope04_connect]
46 -1.259640 -2.480268 -137.844437 158.420044 -89.408173 -95.625793 137.872513
47 -1.259640 -2.480268 -137.844437 156.952438 -89.390587 -94.821083 137.872513
[Rope3_Seg01]
46 0.000000 0.000000 0.000000 -137.673752 21.841209 -95.986046 0.000000
47 0.000000 0.000000 0.000000 -139.968796 26.752203 -96.580078 0.000000
[Rope3_Seg02]
46 139.999924 -0.000119 0.000060 0.192217 -1.863263 -3.197214 139.999924
47 139.999924 -0.000119 0.000060 0.527014 -1.316377 -3.942228 139.999924
[Rope3_Seg03]
46 139.999924 -0.000119 0.000119 0.204792 -2.228348 -3.826765 139.999924
47 139.999924 -0.000119 0.000119 0.509334 -1.620710 -4.740423 139.999924
[Rope3_Seg04]
46 139.999924 0.000119 0.000000 0.332547 -3.992287 -7.066277 139.999924
47 139.999924 0.000119 0.000000 0.628377 -3.016180 -8.710974 139.999924
[Rope3_Seg05]
46 139.999924 -0.000238 0.000060 0.115957 -0.354262 -0.176749 139.999924
47 139.999924 -0.000238 0.000060 0.116233 0.154357 0.610131 139.999924
[Rope3_Seg06]
46 139.999893 -0.000119 -0.000060 0.426867 2.508103 4.944576 139.999893
47 139.999893 -0.000119 -0.000060 0.238222 2.331163 6.747820 139.999893
[Rope3_Seg07]
46 139.999771 0.000060 -0.000119 0.459607 0.840501 1.741084 139.999771
47 139.999771 0.000060 -0.000119 0.347123 0.864710 2.512022 139.999771
[Rope3_Seg08]
46 139.999985 -0.000060 0.000000 0.495720 0.496794 1.017703 139.999985
47 139.999985 -0.000060 0.000000 0.419083 0.525406 1.502190 139.999985
[Rope3_Seg09]
46 90.185997 -0.000179 -0.000060 89.793228 -1.359877 -0.847183 90.185997
47 90.185997 -0.000179 -0.000060 89.793228 -1.359877 -0.847183 90.185997
[R_rear_hand01]
46 103.366196 -6.073594 -10.757982 -177.714203 24.565960 -73.910950 104.101845
47 103.366196 -6.073594 -10.757982 -177.714203 24.565960 -73.910950 104.101845
[R_rear_hand02]
46 100.509819 12.039542 -7.992327 -12.874829 36.868488 72.167213 101.543350
47 100.509819 12.039542 -7.992327 -12.874829 36.868488 72.167213 101.543350
[R_rear_hand03]
46 101.539970 5.215704 5.435467 71.484581 -71.816628 21.513813 101.819031
47 101.539970 5.215704 5.435467 71.484581 -71.816628 21.513813 101.819031
[Rope4_Seg01]
46 0.000010 0.000038 -0.000114 42.968895 18.901253 -122.037590 0.000121
47 0.000010 0.000038 -0.000114 42.781986 19.763739 -122.058937 0.000121
[Rope4_Seg02]
46 139.999985 0.000060 0.000119 -0.006778 4.330549 1.347623 139.999985
47 139.999985 0.000060 0.000119 -0.003974 4.241407 1.318000 139.999985
[Rope4_Seg03]
46 139.999924 0.000000 -0.000238 0.062057 4.894040 1.529018 139.999924
47 139.999924 0.000000 -0.000238 0.063959 4.790053 1.489384 139.999924
[Rope4_Seg04]
46 139.999985 0.000000 0.000119 0.499311 9.962577 5.249755 139.999985
47 139.999985 0.000000 0.000119 0.482887 9.585616 5.439020 139.999985
[Rope4_Seg05]
46 139.999802 -0.000060 -0.000119 0.374571 4.171221 0.183567 139.999802
47 139.999802 -0.000060 -0.000119 0.393249 4.369286 0.145342 139.999802
[Rope4_Seg06]
46 139.999924 0.000000 0.000060 1.208542 -8.621138 -8.474325 139.999924
47 139.999924 0.000000 0.000060 1.332010 -8.030575 -9.224565 139.999924
[Rope4_Seg07]
46 139.999802 0.000000 0.000000 0.241730 -4.865545 -4.598624 139.999802
47 139.999802 0.000000 0.000000 0.243942 -4.607659 -5.033705 139.999802
[Rope4_Seg08]
46 139.999924 0.000000 0.000119 -1.541405 -1.780618 -1.938333 139.999924
47 139.999924 0.000000 0.000119 -1.561393 -1.634756 -2.098298 139.999924
[Rope4_Seg09]
46 90.185791 0.000060 0.000060 -135.617828 2.228885 0.850567 90.185791
47 90.185791 0.000060 0.000060 -135.617828 2.228885 0.850567 90.185791
[L_rear_hand01]
46 101.696655 -8.392275 -7.654577 -12.874829 -36.868488 107.832764 102.329041
47 101.696655 -8.392275 -7.654577 -12.874829 -36.868488 107.832764 102.329041
[L_rear_hand02]
46 102.726799 -1.568258 5.773216 71.484581 71.816628 158.486160 102.900848
47 102.726799 -1.568258 5.773216 71.484581 71.816628 158.486160 102.900848
[L_rear_hand03]
46 104.552910 9.721220 -10.420293 -177.714203 -24.565960 -106.089035 105.519653
47 104.552910 9.721220 -10.420293 -177.714203 -24.565960 -106.089035 105.519653
